<svg data-v-0dd9719b="" version="1.0" xmlns="http://www.w3.org/2000/svg" xmlns:xlink="http://www.w3.org/1999/xlink" width="100%" height="100%" viewBox="0 0 340.000000 250.000000" preserveAspectRatio="xMidYMid meet" color-interpolation-filters="sRGB" style="margin: auto;"> <rect data-v-0dd9719b="" x="0" y="0" width="100%" height="100%" fill="#fff" fill-opacity="1" class="background"></rect> <rect data-v-0dd9719b="" x="0" y="0" width="100%" height="100%" fill="url(#watermark)" fill-opacity="1" class="watermarklayer"></rect> <g data-v-0dd9719b="" fill="#333" class="icon-text-wrapper icon-svg-group iconsvg" transform="translate(47.21000671386719,94.97177314758301)"><g class="iconsvg-imagesvg" transform="translate(0,0)"><g><rect fill="#333" fill-opacity="0" stroke-width="2" x="0" y="0" width="60" height="60.05645306588193" class="image-rect"></rect> <svg x="0" y="0" width="60" height="60.05645306588193" filtersec="colorsb2944144778" class="image-svg-svg primary" style="overflow: visible;"><svg xmlns="http://www.w3.org/2000/svg" viewBox="0.021065711975097656 0.04933854937553406 96.07542419433594 96.1658706665039"><path d="M89.53 23.88C97.74 35.82 99 57.74 89 73.58 77.86 91.24 58.43 98 42.84 95.82c.59-.67 1-1.22 1.53-1.72Q54.87 83.56 65.4 73a15.58 15.58 0 0 1 2-2c2.2-1.54 2.43-3.68 2.35-6.14-.14-4.21 0-8.42 0-12.63 0-2.51-.16-5 .07-7.51a6.1 6.1 0 0 1 1.62-3c1.16-1.37 2.53-2.58 3.81-3.85L89.2 24a.89.89 0 0 1 .33-.12zM6.62 72.23c-7.63-11.79-10-32.09.28-49A47.84 47.84 0 0 1 53.25.35c-.61.67-1 1.22-1.55 1.71Q39.83 14 27.94 25.81a4.48 4.48 0 0 0-1.44 3.49q.09 10.81 0 21.64a3.64 3.64 0 0 1-.79 2.36c-6.14 6.22-12.34 12.37-18.52 18.53a4.69 4.69 0 0 1-.57.4z" fill="#273961"></path><path d="M24.52 89.49a10.94 10.94 0 0 0 1.9-1.29C34.72 80 43 71.65 51.27 63.41a4.48 4.48 0 0 0 1.44-3.51q-.09-10.73 0-21.44a4.21 4.21 0 0 1 .94-2.69q11.93-12.09 24-24.05a12.7 12.7 0 0 1 1.07-.84l5 4.78c-.56.62-.95 1.09-1.38 1.52q-10 10.08-20.1 20.16c-1 1-2.76 1.48-2.67 3.58.16 3.86 0 7.74.06 11.61a73.57 73.57 0 0 0 .48 8.66c.37 2.7-.84 4.46-2.59 6.2-8.18 8.1-16.35 16.2-24.44 24.4-1.25 1.27-2.28 1.48-3.77.64s-2.93-1.43-4.4-2.13z" fill="#b5312d"></path><path d="M70.45 5.43c-4.62 4.55-8.87 8.7-13.08 12.89S48.64 27 44.4 31.38a5.28 5.28 0 0 0-1.34 3.28c-.12 7.21 0 14.43-.11 21.64a3.94 3.94 0 0 1-.89 2.51c-8.31 8.42-16.69 16.77-25 25.13a3.06 3.06 0 0 1-.5.3l-3.89-4.46c1.38-1.29 3.06-2.8 4.67-4.39 5.83-5.8 11.6-11.65 17.46-17.42a4.62 4.62 0 0 0 1.47-3.68c-.06-7 0-14 0-21.06a4.47 4.47 0 0 1 1.46-3.49Q50.43 17 63.1 4.22c1-1 1.91-1.45 3.26-.67 1.13.64 2.36 1.1 4.09 1.88z" fill="#b5312d"></path></svg></svg> <!----></g></g> <g transform="translate(67,25.56822681427002)"><g data-gra="path-name" fill-rule="" class="tp-name iconsvg-namesvg"><g transform="scale(1)"><g><path d="M1.31-9.87L11.14-9.87 10.55-5.03Q10.42-4.57 10.05-4.27 9.68-3.97 9.33-3.97L9.33-3.97 4.04-3.97 3.58-0.95 0.71-0.95 1.77-9.43 1.31-9.87ZM7.98-8.35L4.65-8.35 4.33-5.49 7.52-5.49 7.98-8.35ZM13.24-9.87L21.86-9.87 21.72-8.35 16.72-8.35 16.43-6.4 21.11-6.4 20.97-4.89 16.11-4.89 15.81-2.46 21.11-2.46 20.97-0.95 12.48-0.95 13.7-9.27 13.24-9.87ZM23.8-9.87L33.64-9.87 33.04-5.33Q33.04-5.11 32.94-4.91 32.83-4.71 32.66-4.57 32.49-4.43 32.28-4.35 32.06-4.27 31.83-4.27L31.83-4.27 29.86-4.27 33.04-0.95 29.71-0.95 26.69-4.27 26.23-0.95 23.2-0.95 24.26-9.27 23.8-9.87ZM30.47-8.35L27.14-8.35 26.83-5.79 30.17-5.79 30.47-8.35ZM35.51-9.87L39.14-9.87 38.08-2.46 43.98-2.46 43.84-0.95 35.97-0.95Q35.51-0.95 35.29-1.25 35.06-1.54 35.06-2L35.06-2 35.97-9.27 35.51-9.87ZM46.25-9.87L54.73-9.87Q54.95-9.87 55.14-9.79 55.33-9.71 55.46-9.57 55.6-9.43 55.64-9.24 55.69-9.05 55.63-8.81L55.63-8.81 54.57-0.95 46.09-0.95Q45.87-0.95 45.68-1.02 45.49-1.1 45.36-1.25 45.22-1.39 45.18-1.58 45.13-1.78 45.19-2L45.19-2 46.25-9.87ZM52.6-8.35L48.98-8.35 48.22-2.46 51.7-2.46 52.6-8.35ZM57.68-9.87L61.32-9.87 64.49-4.27 65.24-9.87 67.83-9.87 66.62-0.95 63.59-0.95 60.56-6.4 59.81-0.95 57.08-0.95 58.29-9.27 57.68-9.87ZM69.85-9.87L73.49-9.87 76.66-4.27 77.41-9.87 80-9.87 78.78-0.95 75.76-0.95 72.73-6.4 71.97-0.95 69.25-0.95 70.46-9.27 69.85-9.87ZM82.17-9.87L90.8-9.87 90.65-8.35 85.66-8.35 85.36-6.4 90.04-6.4 89.9-4.89 85.04-4.89 84.74-2.46 90.04-2.46 89.9-0.95 81.42-0.95 82.63-9.27 82.17-9.87ZM93.57-9.43L93.11-9.87 96.28-9.87 97.65-7.3 99.47-9.57 99.17-9.87 102.79-9.87 98.87-5.49 101.58-0.95 98.55-0.95 97.2-3.67 94.93-0.95 91.9-0.95 95.84-5.49 93.57-9.43ZM109.27-0.95L106.24-0.95 107.3-8.35 103.97-8.35 104.13-9.87 113.81-9.87 113.51-8.35 110.33-8.35 109.27-0.95ZM115.83-9.87L125.66-9.87 125.07-5.33Q125.07-5.11 124.96-4.91 124.86-4.71 124.69-4.57 124.51-4.43 124.3-4.35 124.09-4.27 123.85-4.27L123.85-4.27 121.88-4.27 125.07-0.95 121.74-0.95 118.71-4.27 118.26-0.95 115.23-0.95 116.29-9.27 115.83-9.87ZM122.5-8.35L119.17-8.35 118.85-5.79 122.2-5.79 122.5-8.35ZM127.68-9.87L131.17-9.87 130.11-2.46 133.74-2.46 134.81-9.43 134.19-9.87 137.83-9.87 136.62-0.95 128-0.95Q127.54-0.95 127.31-1.25 127.08-1.54 127.08-2L127.08-2 128.14-9.43 127.68-9.87ZM140.01-2.76L145.46-2.76 145.76-4.57 139.71-4.57 140.47-9.87 149.39-9.87 149.09-7.3 146.06-7.3 146.22-8.35 143.33-8.35 142.88-6.08 148.93-6.08 148.33-2Q148.33-1.78 148.23-1.58 148.13-1.39 147.95-1.25 147.78-1.1 147.57-1.02 147.35-0.95 147.12-0.95L147.12-0.95 139.25-0.95 139.55-3.37 140.01-2.76ZM151.48-9.87L155.13-9.87 153.75-0.95 150.89-0.95 151.94-9.27 151.48-9.87ZM157.71-9.87L166.19-9.87Q166.41-9.87 166.6-9.79 166.79-9.71 166.92-9.57 167.06-9.43 167.11-9.24 167.15-9.05 167.09-8.81L167.09-8.81 166.03-0.95 157.55-0.95Q157.33-0.95 157.14-1.02 156.95-1.1 156.82-1.25 156.69-1.39 156.64-1.58 156.59-1.78 156.65-2L156.65-2 157.71-9.87ZM164.06-8.35L160.44-8.35 159.68-2.46 163.16-2.46 164.06-8.35ZM169.14-9.87L172.78-9.87 175.95-4.27 176.71-9.87 179.29-9.87 178.08-0.95 175.05-0.95 172.02-6.4 171.27-0.95 168.54-0.95 169.75-9.27 169.14-9.87Z" transform="translate(-0.7099999785423279, 9.869999885559082)"></path></g> <!----> <!----> <!----> <!----> <!----> <!----> <!----></g></g> <!----></g></g><defs v-gra="od"></defs></svg>